<?xml version="1.0" encoding="UTF-8" standalone="no"?>
<!-- Created with Inkscape (http://www.inkscape.org/) -->

<svg
   width="132.29167mm"
   height="132.29167mm"
   viewBox="0 0 132.29168 132.29167"
   version="1.1"
   id="svg9788"
   inkscape:export-filename="C:\Users\nqrz\Pictures\logo-fill.png"
   inkscape:export-xdpi="96"
   inkscape:export-ydpi="96"
   inkscape:version="1.1.1 (3bf5ae0d25, 2021-09-20)"
   sodipodi:docname="logo-aqua.svg"
   xmlns:inkscape="http://www.inkscape.org/namespaces/inkscape"
   xmlns:sodipodi="http://sodipodi.sourceforge.net/DTD/sodipodi-0.dtd"
   xmlns="http://www.w3.org/2000/svg"
   xmlns:svg="http://www.w3.org/2000/svg">
  <sodipodi:namedview
     id="namedview9790"
     pagecolor="#ffffff"
     bordercolor="#999999"
     borderopacity="1"
     inkscape:pageshadow="0"
     inkscape:pageopacity="0"
     inkscape:pagecheckerboard="0"
     inkscape:document-units="mm"
     showgrid="false"
     inkscape:zoom="0.64052329"
     inkscape:cx="372.3518"
     inkscape:cy="497.24968"
     inkscape:window-width="1920"
     inkscape:window-height="1129"
     inkscape:window-x="-8"
     inkscape:window-y="-8"
     inkscape:window-maximized="1"
     inkscape:current-layer="layer1" />
  <defs
     id="defs9785" />
  <g
     inkscape:label="Layer 1"
     inkscape:groupmode="layer"
     id="layer1"
     transform="translate(-6.6093793,-16.93596)">
    <path
       id="rect4180-2"
       style="fill:#00ffff;fill-opacity:1;stroke:none;stroke-width:0.399779;stroke-opacity:0.638554"
       d="M 72.754967,16.935969 A 66.146017,66.14577 0 0 0 47.924568,21.798743 L 105.2047,130.65321 95.716183,21.627884 h 1.494854 a 66.146017,66.14577 0 0 0 -0.0584,-0.02289 H 95.716192 V 21.053495 A 66.146017,66.14577 0 0 0 72.754967,16.93596 Z m 39.246443,12.907023 7.34918,100.122418 A 66.146017,66.14577 0 0 0 138.90105,83.081791 66.146017,66.14577 0 0 0 112.00141,29.842992 Z m -87.319888,7.83349 A 66.146017,66.14577 0 0 0 6.6093793,83.081791 66.146017,66.14577 0 0 0 31.827239,135.02775 Z m 14.838556,0.612838 8.25213,106.00933 a 66.146017,66.14577 0 0 0 24.982759,4.92898 66.146017,66.14577 0 0 0 23.345757,-4.28547 v -9.5e-4 h -0.396711 z" />
  </g>
</svg>
